<?xml version="1.0" encoding="UTF-8"?>
<svg width="40px" height="40px" viewBox="0 0 40 40" version="1.1" xmlns="http://www.w3.org/2000/svg" xmlns:xlink="http://www.w3.org/1999/xlink">
    <!-- Generator: Sketch 59.1 (86144) - https://sketch.com -->
    <title>Square备份 14</title>
    <desc>Created with Sketch.</desc>
    <g id="页面-1" stroke="none" stroke-width="1" fill="none" fill-rule="evenodd">
        <path d="M36,39 L4,39 C2.35,39 1,37.65 1,36 L1,4 C1,2.35 2.35,1 4,1 L36,1 C37.65,1 39,2.35 39,4 L39,36 C39,37.65 37.65,39 36,39" id="Square备份-14" stroke="#979797" stroke-width="0.125"></path>
        <g id="编组-14" transform="translate(2.000000, 2.000000)">
            <rect id="矩形备份-7" stroke="#2B61ED" stroke-width="2" fill="#F8FAFF" x="0" y="0" width="36" height="36" rx="2"></rect>
            <path d="M35,20 L27,20 C26.4477153,20 26,19.5522847 26,19 C26,18.4477153 26.4477153,18 27,18 L35,18 L35,18" id="路径备份-7" fill="#DD6940"></path>
        </g>
    </g>
</svg>