<?xml version="1.0" encoding="UTF-8"?>
<svg width="38px" height="38px" viewBox="0 0 38 38" version="1.1" xmlns="http://www.w3.org/2000/svg" xmlns:xlink="http://www.w3.org/1999/xlink">
    <!-- Generator: Sketch 59.1 (86144) - https://sketch.com -->
    <title>矩形备份 6</title>
    <desc>Created with Sketch.</desc>
    <g id="页面-1" stroke="none" stroke-width="1" fill="none" fill-rule="evenodd">
        <path d="M1.4,14.45 C1.14819416,14.6388544 1,14.9352427 1,15.25 L1,36 C1,36.5522847 1.44771525,37 2,37 L36,37 C36.5522847,37 37,36.5522847 37,36 L37,15.25 C37,14.9352427 36.8518058,14.6388544 36.6,14.45 L19.6,1.7 C19.2444444,1.43333333 18.7555556,1.43333333 18.4,1.7 L1.4,14.45 Z" id="矩形备份-6" stroke="#2B61EC" stroke-width="2" fill="#F8FAFF"></path>
        <g id="闪聘备份-3" transform="translate(19.500000, 24.000000) rotate(-360.000000) translate(-19.500000, -24.000000) translate(16.000000, 18.000000)" fill="#DD6940" fill-rule="nonzero">
            <path d="M6.72529576,5.49253973 L4.8556793,5.49253973 C4.68720836,5.49253973 4.55845822,5.31540738 4.58585187,5.12231715 L5.25151751,0.37165614 C5.29534734,0.0604776748 4.96525389,-0.127825191 4.78034677,0.101968137 L0.0741234371,5.96968005 C-0.0888687669,6.17394078 0.0344026479,6.50746027 0.274097066,6.50746027 L2.14371352,6.50746027 C2.31218446,6.50746027 2.4409346,6.68459262 2.41354095,6.87768285 L1.74787531,11.6283439 C1.70404548,11.9395223 2.03413893,12.1278252 2.21904605,11.8980319 L6.92526938,6.03031995 C7.08963127,5.82605922 6.96499017,5.49253973 6.72529576,5.49253973 Z" id="路径"></path>
        </g>
        <path d="M35,38 L3,38 C1.35,38 0,36.65 0,35 L0,3 C0,1.35 1.35,0 3,0 L35,0 C36.65,0 38,1.35 38,3 L38,35 C38,36.65 36.65,38 35,38" id="Square备份-13" stroke="#979797" stroke-width="0.125"></path>
    </g>
</svg>